<?xml version="1.0" standalone="no"?>
<!DOCTYPE svg PUBLIC "-//W3C//DTD SVG 20010904//EN"
 "http://www.w3.org/TR/2001/REC-SVG-20010904/DTD/svg10.dtd">
<svg version="1.0" xmlns="http://www.w3.org/2000/svg"
 width="625.000000pt" height="625.000000pt" viewBox="0 0 625.000000 625.000000"
 preserveAspectRatio="xMidYMid meet">
<metadata>
Created by potrace 1.11, written by Peter Selinger 2001-2013
</metadata>
<g transform="translate(0.000000,625.000000) scale(0.100000,-0.100000)"
fill="#000000" stroke="none">
<path d="M3047 6054 c-1 -1 -47 -5 -102 -9 -116 -8 -149 -12 -190 -19 -81 -15
-102 -19 -120 -21 -29 -3 -84 -14 -130 -27 -22 -5 -51 -12 -65 -15 -46 -8
-314 -101 -390 -134 -200 -89 -438 -228 -575 -336 -141 -111 -347 -305 -420
-394 -117 -143 -214 -278 -271 -376 -10 -18 -23 -33 -28 -33 -5 0 -7 -3 -4 -6
4 -3 -8 -31 -26 -62 -47 -86 -101 -199 -131 -277 -14 -38 -30 -79 -35 -90 -13
-28 -60 -173 -63 -193 -1 -9 -6 -22 -9 -28 -4 -6 -10 -24 -12 -40 -7 -38 -12
-59 -26 -119 -7 -27 -14 -70 -16 -95 -3 -25 -7 -52 -10 -60 -3 -8 -8 -31 -10
-50 -2 -19 -6 -62 -10 -95 -8 -81 -8 -436 0 -510 4 -33 9 -80 10 -105 2 -25 7
-52 10 -60 3 -8 8 -35 10 -60 2 -25 5 -45 6 -45 1 0 3 -9 5 -20 2 -11 7 -36
11 -55 4 -19 8 -38 8 -42 1 -3 4 -10 8 -14 4 -4 3 -13 -2 -19 -7 -9 -6 -16 5
-25 8 -7 15 -22 15 -34 0 -12 4 -26 9 -31 6 -6 11 -22 13 -37 2 -15 7 -30 11
-34 4 -4 7 -17 7 -29 0 -11 4 -25 8 -30 5 -6 15 -30 22 -55 8 -25 21 -56 29
-70 9 -13 15 -25 14 -27 -1 -1 6 -23 17 -49 11 -25 17 -51 13 -57 -3 -7 -3 -9
1 -5 5 4 26 -30 49 -75 22 -45 46 -89 53 -97 7 -8 14 -19 15 -25 2 -11 14 -31
76 -127 24 -37 43 -70 43 -72 0 -3 11 -17 25 -32 21 -22 23 -30 13 -42 -11
-13 -11 -14 0 -8 9 6 23 -2 42 -23 16 -17 26 -31 23 -31 -4 0 6 -13 21 -29 15
-15 26 -34 24 -42 -2 -9 4 -13 14 -11 16 3 23 -9 19 -31 -1 -5 2 -6 6 -4 5 3
19 -8 33 -25 14 -16 42 -46 63 -66 24 -23 36 -41 32 -51 -5 -13 -4 -13 6 -4
10 10 16 7 31 -15 10 -15 18 -23 18 -18 0 6 11 -5 25 -24 14 -19 25 -31 25
-27 0 4 13 -5 30 -20 19 -16 27 -30 21 -37 -10 -14 -10 -47 0 -40 5 2 6 11 3
18 -10 26 16 27 40 3 14 -14 31 -27 38 -29 10 -4 10 -8 1 -20 -10 -12 -10 -15
2 -15 8 0 12 4 9 9 -11 17 14 7 38 -15 34 -32 224 -157 238 -157 6 0 13 -6 16
-14 3 -8 17 -17 31 -21 14 -3 34 -16 45 -28 11 -12 16 -16 13 -8 -8 14 44 -16
56 -33 4 -5 11 -6 17 -2 6 3 12 3 14 -1 3 -8 38 -25 143 -73 28 -12 58 -26 67
-31 10 -5 22 -9 27 -9 5 0 22 -5 38 -12 31 -13 38 -15 54 -17 5 0 8 -5 5 -9
-3 -5 5 -8 17 -7 12 1 29 -2 37 -6 13 -6 95 -32 110 -35 26 -4 68 -19 79 -28
12 -9 13 -8 6 4 -8 13 -7 13 8 1 9 -7 17 -11 17 -8 0 3 17 1 38 -5 20 -5 53
-11 72 -14 19 -3 42 -8 50 -11 8 -3 26 -7 40 -8 14 -2 54 -6 90 -10 36 -4 77
-7 92 -7 15 0 26 -3 24 -7 -2 -3 28 -5 67 -5 41 1 78 -3 86 -10 11 -8 13 -8 8
0 -4 8 5 11 28 10 19 0 35 -5 35 -11 0 -7 3 -7 8 0 10 15 84 16 75 1 -5 -8 -3
-8 8 0 18 14 50 14 68 0 11 -8 13 -8 7 2 -5 8 2 12 26 13 18 0 41 2 50 4 10 2
23 -4 29 -13 10 -16 10 -15 5 1 -7 23 21 23 48 0 12 -10 15 -11 9 -3 -20 22
-15 30 17 26 17 -2 30 -1 30 3 0 3 15 6 33 7 17 1 48 4 67 8 58 12 94 18 113
17 9 0 17 4 17 8 0 4 6 8 13 8 6 0 26 4 42 8 17 4 37 8 45 9 9 1 22 6 29 11
10 6 12 4 6 -6 -5 -8 1 -5 13 5 12 11 22 16 22 13 0 -3 16 1 35 9 19 8 35 11
35 7 0 -4 5 -2 12 5 16 16 31 15 23 0 -4 -7 0 -5 8 4 11 14 16 15 26 5 10 -9
12 -9 9 3 -2 8 4 15 12 15 8 0 14 -6 12 -13 -1 -8 2 -11 7 -7 6 3 8 11 5 18
-5 14 53 40 69 30 6 -3 7 -1 3 5 -4 7 -1 13 8 13 25 2 29 4 66 24 19 10 40 19
45 20 6 0 26 9 45 20 19 10 42 20 50 21 8 2 16 8 18 14 2 5 8 8 13 4 5 -3 9 0
9 5 0 6 7 11 16 11 9 0 12 -5 8 -13 -4 -7 -3 -9 2 -4 5 5 9 13 9 19 0 5 18 20
40 32 22 12 56 32 75 44 19 11 39 21 44 21 5 -1 12 3 15 8 9 12 151 114 151
108 0 -3 9 4 20 15 12 12 26 18 32 14 6 -4 8 -3 5 3 -4 6 2 18 13 28 11 10 20
15 20 10 0 -4 10 4 21 19 12 15 28 25 35 22 8 -3 13 -1 11 3 -1 5 48 58 108
117 61 60 138 140 170 179 33 38 65 75 70 81 6 6 21 27 35 47 14 20 28 37 33
37 4 0 7 5 7 11 0 6 11 25 25 43 14 17 29 36 34 42 5 6 16 24 24 40 8 16 31
54 51 84 40 61 165 310 191 380 36 97 105 301 109 323 2 12 10 45 16 72 6 28
14 59 16 70 2 11 6 31 9 45 8 34 12 64 20 140 4 36 9 67 10 70 2 3 7 46 11 95
13 168 4 444 -20 592 -4 21 -8 52 -10 68 -10 77 -64 300 -96 396 -72 216 -199
481 -297 621 -18 26 -33 50 -33 53 0 6 -109 155 -121 165 -3 3 -12 15 -20 26
-41 61 -203 230 -339 353 -129 118 -386 288 -582 387 -171 86 -475 195 -608
218 -14 3 -50 10 -80 16 -58 12 -77 15 -150 25 -25 3 -56 8 -70 10 -51 9 -405
25 -413 19z"/>
<path d="M955 1561 c-3 -5 -2 -12 3 -15 5 -3 9 1 9 9 0 17 -3 19 -12 6z"/>
<path d="M1074 1426 c1 -8 5 -18 8 -22 4 -3 5 1 4 10 -1 8 -5 18 -8 22 -4 3
-5 -1 -4 -10z"/>
<path d="M1113 1405 c0 -8 4 -12 9 -9 5 3 6 10 3 15 -9 13 -12 11 -12 -6z"/>
<path d="M1219 1318 c-6 -21 -5 -38 1 -38 5 0 8 9 7 20 -1 17 -5 26 -8 18z"/>
<path d="M1390 1110 c0 -5 5 -10 11 -10 5 0 7 5 4 10 -3 6 -8 10 -11 10 -2 0
-4 -4 -4 -10z"/>
<path d="M1459 1098 c-5 -18 -6 -38 -1 -34 7 8 12 36 6 36 -2 0 -4 -1 -5 -2z"/>
<path d="M4773 1059 c-2 -23 3 -25 10 -4 4 8 3 16 -1 19 -4 3 -9 -4 -9 -15z"/>
<path d="M1493 1019 c-2 -23 3 -25 10 -4 4 8 3 16 -1 19 -4 3 -9 -4 -9 -15z"/>
<path d="M4735 1009 c-3 -4 2 -6 10 -5 21 3 28 13 10 13 -9 0 -18 -4 -20 -8z"/>
<path d="M4650 989 c0 -5 5 -7 10 -4 6 3 10 8 10 11 0 2 -4 4 -10 4 -5 0 -10
-5 -10 -11z"/>
<path d="M1589 973 c-13 -16 -12 -17 4 -4 16 13 21 21 13 21 -2 0 -10 -8 -17
-17z"/>
<path d="M4599 963 c-13 -16 -12 -17 4 -4 9 7 17 15 17 17 0 8 -8 3 -21 -13z"/>
<path d="M1690 949 c0 -5 5 -7 10 -4 6 3 10 8 10 11 0 2 -4 4 -10 4 -5 0 -10
-5 -10 -11z"/>
<path d="M4656 952 c-2 -4 -1 -14 4 -22 7 -11 9 -9 7 8 -1 24 -3 26 -11 14z"/>
<path d="M4547 929 c7 -7 15 -10 18 -7 3 3 -2 9 -12 12 -14 6 -15 5 -6 -5z"/>
<path d="M4614 926 c1 -8 5 -18 8 -22 4 -3 5 1 4 10 -1 8 -5 18 -8 22 -4 3 -5
-1 -4 -10z"/>
<path d="M1695 921 c-3 -5 -2 -12 3 -15 5 -3 9 1 9 9 0 17 -3 19 -12 6z"/>
<path d="M4550 849 c0 -5 5 -7 10 -4 6 3 10 8 10 11 0 2 -4 4 -10 4 -5 0 -10
-5 -10 -11z"/>
<path d="M1810 829 c0 -5 5 -7 10 -4 6 3 10 8 10 11 0 2 -4 4 -10 4 -5 0 -10
-5 -10 -11z"/>
<path d="M4440 830 c-12 -7 -10 -9 7 -7 12 0 19 5 17 9 -6 10 -6 10 -24 -2z"/>
<path d="M4496 828 c3 -4 11 -5 19 -1 21 7 19 12 -4 10 -11 0 -18 -5 -15 -9z"/>
<path d="M1876 803 c-6 -14 -5 -15 5 -6 7 7 10 15 7 18 -3 3 -9 -2 -12 -12z"/>
<path d="M4270 789 c0 -5 5 -7 10 -4 6 3 10 8 10 11 0 2 -4 4 -10 4 -5 0 -10
-5 -10 -11z"/>
<path d="M4435 790 c-3 -5 -1 -10 4 -10 6 0 11 5 11 10 0 6 -2 10 -4 10 -3 0
-8 -4 -11 -10z"/>
<path d="M1830 771 c0 -6 4 -13 10 -16 6 -3 7 1 4 9 -7 18 -14 21 -14 7z"/>
<path d="M1890 770 c0 -5 5 -10 11 -10 5 0 7 5 4 10 -3 6 -8 10 -11 10 -2 0
-4 -4 -4 -10z"/>
<path d="M4395 770 c-3 -5 -1 -10 4 -10 6 0 11 5 11 10 0 6 -2 10 -4 10 -3 0
-8 -4 -11 -10z"/>
<path d="M4330 749 c0 -5 5 -7 10 -4 6 3 10 8 10 11 0 2 -4 4 -10 4 -5 0 -10
-5 -10 -11z"/>
<path d="M2110 746 c0 -2 8 -10 18 -17 15 -13 16 -12 3 4 -13 16 -21 21 -21
13z"/>
<path d="M2010 715 c0 -7 30 -13 34 -7 3 4 -4 9 -15 9 -10 1 -19 0 -19 -2z"/>
<path d="M2190 716 c0 -2 7 -7 16 -10 8 -3 12 -2 9 4 -6 10 -25 14 -25 6z"/>
<path d="M4170 710 c0 -5 5 -10 11 -10 5 0 7 5 4 10 -3 6 -8 10 -11 10 -2 0
-4 -4 -4 -10z"/>
<path d="M4295 710 c3 -5 8 -10 11 -10 2 0 4 5 4 10 0 6 -5 10 -11 10 -5 0 -7
-4 -4 -10z"/>
<path d="M4336 712 c-2 -4 -1 -14 4 -22 7 -11 9 -9 7 8 -1 24 -3 26 -11 14z"/>
<path d="M4175 681 c-3 -5 -2 -12 3 -15 5 -3 9 1 9 9 0 17 -3 19 -12 6z"/>
<path d="M3950 670 c0 -5 5 -10 11 -10 5 0 7 5 4 10 -3 6 -8 10 -11 10 -2 0
-4 -4 -4 -10z"/>
<path d="M2195 651 c-3 -5 -2 -12 3 -15 5 -3 9 1 9 9 0 17 -3 19 -12 6z"/>
<path d="M3780 630 c-12 -7 -10 -9 7 -7 12 0 19 5 17 9 -6 10 -6 10 -24 -2z"/>
<path d="M3955 619 c-4 -6 -5 -12 -2 -15 2 -3 7 2 10 11 7 17 1 20 -8 4z"/>
<path d="M2206 612 c-3 -5 1 -9 9 -9 8 0 12 4 9 9 -3 4 -7 8 -9 8 -2 0 -6 -4
-9 -8z"/>
<path d="M3820 616 c0 -2 8 -10 18 -17 15 -13 16 -12 3 4 -13 16 -21 21 -21
13z"/>
<path d="M4170 616 c0 -2 7 -7 16 -10 8 -3 12 -2 9 4 -6 10 -25 14 -25 6z"/>
<path d="M2296 588 c3 -4 11 -5 19 -1 21 7 19 12 -4 10 -11 0 -18 -5 -15 -9z"/>
<path d="M2375 590 c3 -5 8 -10 11 -10 2 0 4 5 4 10 0 6 -5 10 -11 10 -5 0 -7
-4 -4 -10z"/>
<path d="M2410 589 c0 -5 5 -7 10 -4 6 3 10 8 10 11 0 2 -4 4 -10 4 -5 0 -10
-5 -10 -11z"/>
<path d="M3890 589 c0 -5 5 -7 10 -4 6 3 10 8 10 11 0 2 -4 4 -10 4 -5 0 -10
-5 -10 -11z"/>
<path d="M2674 576 c1 -8 5 -18 8 -22 4 -3 5 1 4 10 -1 8 -5 18 -8 22 -4 3 -5
-1 -4 -10z"/>
<path d="M2633 563 c0 -9 4 -10 14 -2 7 6 13 12 13 14 0 1 -6 2 -13 2 -8 0
-14 -6 -14 -14z"/>
<path d="M3795 570 c-3 -5 -1 -10 4 -10 6 0 11 5 11 10 0 6 -2 10 -4 10 -3 0
-8 -4 -11 -10z"/>
<path d="M2470 546 c0 -2 8 -10 18 -17 15 -13 16 -12 3 4 -13 16 -21 21 -21
13z"/>
<path d="M2893 521 c0 -11 5 -18 9 -15 4 3 5 11 1 19 -7 21 -12 19 -10 -4z"/>
<path d="M3024 532 c4 -3 14 -7 22 -8 9 -1 13 0 10 4 -4 3 -14 7 -22 8 -9 1
-13 0 -10 -4z"/>
<path d="M2516 512 c-3 -5 1 -9 9 -9 8 0 12 4 9 9 -3 4 -7 8 -9 8 -2 0 -6 -4
-9 -8z"/>
<path d="M3159 518 c-6 -21 -5 -38 1 -38 5 0 8 9 7 20 -1 17 -5 26 -8 18z"/>
<path d="M3615 510 c3 -5 8 -10 11 -10 2 0 4 5 4 10 0 6 -5 10 -11 10 -5 0 -7
-4 -4 -10z"/>
<path d="M3515 490 c-3 -5 -1 -10 4 -10 6 0 11 5 11 10 0 6 -2 10 -4 10 -3 0
-8 -4 -11 -10z"/>
<path d="M2756 472 c-3 -5 1 -9 9 -9 8 0 12 4 9 9 -3 4 -7 8 -9 8 -2 0 -6 -4
-9 -8z"/>
<path d="M2890 469 c0 -5 5 -7 10 -4 6 3 10 8 10 11 0 2 -4 4 -10 4 -5 0 -10
-5 -10 -11z"/>
<path d="M3574 466 c1 -8 5 -18 8 -22 4 -3 5 1 4 10 -1 8 -5 18 -8 22 -4 3 -5
-1 -4 -10z"/>
<path d="M3613 465 c0 -8 4 -12 9 -9 5 3 6 10 3 15 -9 13 -12 11 -12 -6z"/>
<path d="M2939 458 c-5 -18 -6 -38 -1 -34 7 8 12 36 6 36 -2 0 -4 -1 -5 -2z"/>
<path d="M3030 451 c0 -6 4 -12 8 -15 5 -3 9 1 9 9 0 8 -4 15 -9 15 -4 0 -8
-4 -8 -9z"/>
<path d="M3514 436 c1 -8 5 -18 8 -22 4 -3 5 1 4 10 -1 8 -5 18 -8 22 -4 3 -5
-1 -4 -10z"/>
<path d="M3256 432 c-3 -5 1 -9 9 -9 8 0 12 4 9 9 -3 4 -7 8 -9 8 -2 0 -6 -4
-9 -8z"/>
</g>
</svg>
